<svg width="174" height="38" viewBox="0 0 174 38" fill="none" xmlns="http://www.w3.org/2000/svg">
<path fill-rule="evenodd" clip-rule="evenodd" d="M71.7485 13.9362V8.5415H59.6105H53.6764H53.3168V17.9821H51.5186V23.3768H53.3168V32.3679H59.6105V23.3768H66.8034V17.9821H59.6105V13.9362H71.7485Z" fill="white"/>
<path fill-rule="evenodd" clip-rule="evenodd" d="M96.0247 8.5415H102.318V8.58646H108.612V13.9362H102.318V32.3679H96.0247V13.9362H89.731V8.58646H96.0247V8.5415Z" fill="white"/>
<path fill-rule="evenodd" clip-rule="evenodd" d="M149.072 13.9362V8.58649H139.581L135.136 12.1529V13.9362V32.3679H141.43V13.9362H149.072Z" fill="white"/>
<path fill-rule="evenodd" clip-rule="evenodd" d="M121.424 32.3679C128.004 32.3679 133.338 27.0341 133.338 20.4547C133.338 13.8752 128.004 8.5415 121.424 8.5415C114.845 8.5415 109.511 13.8752 109.511 20.4547C109.511 27.0341 114.845 32.3679 121.424 32.3679ZM121.424 27.0182C125.024 27.0182 127.943 24.0997 127.943 20.4996C127.943 16.8996 125.024 13.9811 121.424 13.9811C117.824 13.9811 114.906 16.8996 114.906 20.4996C114.906 24.0997 117.824 27.0182 121.424 27.0182Z" fill="white"/>
<mask id="mask0_109_4" style="mask-type:luminance" maskUnits="userSpaceOnUse" x="109" y="8" width="25" height="25">
<path fill-rule="evenodd" clip-rule="evenodd" d="M121.424 32.3679C128.004 32.3679 133.338 27.0341 133.338 20.4547C133.338 13.8752 128.004 8.5415 121.424 8.5415C114.845 8.5415 109.511 13.8752 109.511 20.4547C109.511 27.0341 114.845 32.3679 121.424 32.3679ZM121.424 27.0182C125.024 27.0182 127.943 24.0997 127.943 20.4996C127.943 16.8996 125.024 13.9811 121.424 13.9811C117.824 13.9811 114.906 16.8996 114.906 20.4996C114.906 24.0997 117.824 27.0182 121.424 27.0182Z" fill="black"/>
</mask>
<g mask="url(#mask0_109_4)">
<path d="M133.292 20.4547C133.292 27.0093 127.979 32.3229 121.424 32.3229V32.4128C128.029 32.4128 133.382 27.059 133.382 20.4547H133.292ZM121.424 8.58643C127.979 8.58643 133.292 13.9 133.292 20.4547H133.382C133.382 13.8504 128.029 8.49652 121.424 8.49652V8.58643ZM109.556 20.4547C109.556 13.9 114.87 8.58643 121.424 8.58643V8.49652C114.82 8.49652 109.466 13.8504 109.466 20.4547H109.556ZM121.424 32.3229C114.87 32.3229 109.556 27.0093 109.556 20.4547H109.466C109.466 27.059 114.82 32.4128 121.424 32.4128V32.3229ZM127.898 20.4996C127.898 24.0749 125 26.9732 121.424 26.9732V27.0631C125.049 27.0631 127.988 24.1246 127.988 20.4996H127.898ZM121.424 14.026C125 14.026 127.898 16.9244 127.898 20.4996H127.988C127.988 16.8747 125.049 13.9361 121.424 13.9361V14.026ZM114.951 20.4996C114.951 16.9244 117.849 14.026 121.424 14.026V13.9361C117.799 13.9361 114.861 16.8747 114.861 20.4996H114.951ZM121.424 26.9732C117.849 26.9732 114.951 24.0749 114.951 20.4996H114.861C114.861 24.1246 117.799 27.0631 121.424 27.0631V26.9732Z" fill="white"/>
</g>
<path fill-rule="evenodd" clip-rule="evenodd" d="M171.748 13.3219C172.712 14.7429 173.378 16.3834 173.655 18.153L166.964 20.588L166.965 20.5898L156.901 24.2526C158.097 25.6691 159.886 26.5687 161.884 26.5687C163.393 26.5687 164.782 26.0562 165.886 25.1958L169.218 29.3941C167.196 30.9757 164.65 31.9184 161.884 31.9184C155.305 31.9184 149.971 26.5846 149.971 20.0052C149.971 13.4257 155.305 8.09198 161.884 8.09198C165.912 8.09198 169.473 10.091 171.629 13.1511L171.679 13.1331L171.748 13.3219ZM155.443 19.0424L166.17 15.1382C165.024 14.1377 163.525 13.5316 161.884 13.5316C158.627 13.5316 155.928 15.9208 155.443 19.0424Z" fill="white"/>
<mask id="mask1_109_4" style="mask-type:luminance" maskUnits="userSpaceOnUse" x="149" y="8" width="25" height="24">
<path fill-rule="evenodd" clip-rule="evenodd" d="M171.748 13.3219C172.712 14.7429 173.378 16.3834 173.655 18.153L166.964 20.588L166.965 20.5898L156.901 24.2526C158.097 25.6691 159.886 26.5687 161.884 26.5687C163.393 26.5687 164.782 26.0562 165.886 25.1958L169.218 29.3941C167.196 30.9757 164.65 31.9184 161.884 31.9184C155.305 31.9184 149.971 26.5846 149.971 20.0052C149.971 13.4257 155.305 8.09198 161.884 8.09198C165.912 8.09198 169.473 10.091 171.629 13.1511L171.679 13.1331L171.748 13.3219ZM155.443 19.0424L166.17 15.1382C165.024 14.1377 163.525 13.5316 161.884 13.5316C158.627 13.5316 155.928 15.9208 155.443 19.0424Z" fill="black"/>
</mask>
<g mask="url(#mask1_109_4)">
<path d="M173.655 18.153L173.67 18.1952L173.705 18.1826L173.699 18.146L173.655 18.153ZM171.748 13.3218L171.705 13.3372L171.707 13.3424L171.71 13.3471L171.748 13.3218ZM166.964 20.5879L166.949 20.5457L166.907 20.5611L166.922 20.6033L166.964 20.5879ZM166.965 20.5897L166.981 20.632L167.023 20.6166L167.007 20.5744L166.965 20.5897ZM156.901 24.2526L156.886 24.2104L156.825 24.2324L156.867 24.2816L156.901 24.2526ZM165.886 25.1958L165.922 25.1678L165.894 25.1329L165.859 25.1603L165.886 25.1958ZM169.218 29.394L169.246 29.4295L169.281 29.4016L169.254 29.3661L169.218 29.394ZM171.629 13.1511L171.593 13.1769L171.613 13.2051L171.645 13.1933L171.629 13.1511ZM171.679 13.1331L171.721 13.1177L171.706 13.0755L171.664 13.0909L171.679 13.1331ZM166.17 15.1382L166.185 15.1805L166.257 15.1544L166.2 15.1044L166.17 15.1382ZM155.443 19.0424L155.399 19.0355L155.387 19.1107L155.458 19.0847L155.443 19.0424ZM173.699 18.146C173.422 16.3697 172.753 14.723 171.785 13.2966L171.71 13.3471C172.671 14.7628 173.335 16.3971 173.61 18.1599L173.699 18.146ZM166.98 20.6302L173.67 18.1952L173.639 18.1107L166.949 20.5457L166.98 20.6302ZM167.007 20.5744L167.007 20.5726L166.922 20.6033L166.923 20.6051L167.007 20.5744ZM156.916 24.2949L166.981 20.632L166.95 20.5475L156.886 24.2104L156.916 24.2949ZM161.884 26.5237C159.9 26.5237 158.123 25.6304 156.936 24.2236L156.867 24.2816C158.071 25.7077 159.872 26.6136 161.884 26.6136V26.5237ZM165.859 25.1603C164.762 26.0147 163.383 26.5237 161.884 26.5237V26.6136C163.403 26.6136 164.802 26.0975 165.914 25.2312L165.859 25.1603ZM169.254 29.3661L165.922 25.1678L165.851 25.2237L169.183 29.422L169.254 29.3661ZM161.884 31.9633C164.661 31.9633 167.216 31.017 169.246 29.4295L169.191 29.3587C167.176 30.9343 164.64 31.8734 161.884 31.8734V31.9633ZM149.926 20.0051C149.926 26.6094 155.28 31.9633 161.884 31.9633V31.8734C155.33 31.8734 150.016 26.5598 150.016 20.0051H149.926ZM161.884 8.047C155.28 8.047 149.926 13.4008 149.926 20.0051H150.016C150.016 13.4505 155.33 8.13691 161.884 8.13691V8.047ZM171.666 13.1252C169.502 10.0537 165.928 8.047 161.884 8.047V8.13691C165.897 8.13691 169.445 10.1283 171.593 13.1769L171.666 13.1252ZM171.664 13.0909L171.614 13.1088L171.645 13.1933L171.695 13.1753L171.664 13.0909ZM171.79 13.3065L171.721 13.1177L171.637 13.1484L171.705 13.3372L171.79 13.3065ZM166.155 15.096L155.428 19.0002L155.458 19.0847L166.185 15.1805L166.155 15.096ZM161.884 13.5765C163.514 13.5765 165.003 14.1784 166.14 15.1721L166.2 15.1044C165.046 14.097 163.537 13.4866 161.884 13.4866V13.5765ZM155.488 19.0493C155.969 15.9493 158.649 13.5765 161.884 13.5765V13.4866C158.604 13.4866 155.886 15.8923 155.399 19.0355L155.488 19.0493Z" fill="white"/>
</g>
<path fill-rule="evenodd" clip-rule="evenodd" d="M6.71573 0H15.6161L19.0541 9.22632L20.8755 7.64316H39L35.8849 15.6432H21.4452L22.8414 19.3901L23.0804 20L24.9212 18.4H35.3185L32.2034 26.4H25.4534L29.7759 38H20.8755L16.553 26.4H3.45697e-05L2.83199 18.4L13.027 18.3957L13.5705 18.3959L12.5448 15.6432H0L2.83195 7.64316L9.56273 7.64032L6.71573 0Z" fill="white"/>
<path fill-rule="evenodd" clip-rule="evenodd" d="M87.9103 8.9461V8.5415H73.5246V13.8912H81.6391V17.6022C80.4599 17.2385 79.1701 17.0381 77.8179 17.0381C72.2317 17.0381 67.7029 20.4597 67.7029 24.6805C67.7029 28.9013 72.2317 32.3229 77.8179 32.3229C82.7252 32.3229 86.8161 29.6827 87.7382 26.1799L88.1378 26.3969L90.7129 21.6564L87.9328 20.1465V8.9461H87.9103ZM82.3134 23.0621C82.5287 25.3773 80.74 27.8274 78.2899 27.8274C77.1655 27.8274 75.9446 27.5156 75.098 26.9396C74.2623 26.3711 73.7943 25.5439 73.7943 24.6805C73.7943 22.9425 76.0552 21.5336 78.2899 21.5336C79.9532 21.5336 81.3469 22.0956 82.3134 23.0621Z" fill="white"/>
</svg>
